<svg width="540" height="282" viewBox="0 0 540 282" fill="none" xmlns="http://www.w3.org/2000/svg">
<path d="M171 0V282M32.5 0V282" stroke="black"/>
<path d="M340.5 0V282M202 0V282" stroke="black"/>
<path d="M510.5 0V282M372 0V282" stroke="black"/>
<rect y="101" width="540" height="99" fill="white"/>
<path d="M29.088 149.88C31.744 149.88 34.08 149.528 36.096 148.824C38.144 148.12 39.856 147.144 41.232 145.896C42.64 144.616 43.696 143.096 44.4 141.336C45.104 139.576 45.456 137.64 45.456 135.528C45.456 131.144 44.096 127.72 41.376 125.256C38.688 122.792 34.592 121.56 29.088 121.56H18.048V149.88H29.088ZM29.088 114.216C33.44 114.216 37.216 114.728 40.416 115.752C43.648 116.744 46.32 118.168 48.432 120.024C50.544 121.88 52.112 124.12 53.136 126.744C54.192 129.368 54.72 132.296 54.72 135.528C54.72 138.728 54.16 141.656 53.04 144.312C51.92 146.968 50.272 149.256 48.096 151.176C45.952 153.096 43.28 154.6 40.08 155.688C36.912 156.744 33.248 157.272 29.088 157.272H18.048V183H8.784V114.216H29.088ZM103.94 134.376V183H98.8515C97.6355 183 96.8675 182.408 96.5475 181.224L95.8755 175.992C93.7635 178.328 91.3955 180.216 88.7715 181.656C86.1475 183.064 83.1395 183.768 79.7475 183.768C77.0915 183.768 74.7395 183.336 72.6915 182.472C70.6755 181.576 68.9795 180.328 67.6035 178.728C66.2275 177.128 65.1875 175.192 64.4835 172.92C63.8115 170.648 63.4755 168.136 63.4755 165.384V134.376H72.0195V165.384C72.0195 169.064 72.8515 171.912 74.5155 173.928C76.2115 175.944 78.7875 176.952 82.2435 176.952C84.7715 176.952 87.1235 176.36 89.2995 175.176C91.5075 173.96 93.5395 172.296 95.3955 170.184V134.376H103.94ZM125.599 144.12C127.135 140.792 129.023 138.2 131.263 136.344C133.503 134.456 136.239 133.512 139.471 133.512C140.495 133.512 141.471 133.624 142.399 133.848C143.359 134.072 144.207 134.424 144.943 134.904L144.319 141.288C144.127 142.088 143.647 142.488 142.879 142.488C142.431 142.488 141.775 142.392 140.911 142.2C140.047 142.008 139.071 141.912 137.983 141.912C136.447 141.912 135.071 142.136 133.855 142.584C132.671 143.032 131.599 143.704 130.639 144.6C129.711 145.464 128.863 146.552 128.095 147.864C127.359 149.144 126.687 150.616 126.079 152.28V183H117.487V134.376H122.383C123.311 134.376 123.951 134.552 124.303 134.904C124.655 135.256 124.895 135.864 125.023 136.728L125.599 144.12ZM183.031 153.384C183.031 151.4 182.743 149.592 182.167 147.96C181.623 146.296 180.807 144.872 179.719 143.688C178.663 142.472 177.367 141.544 175.831 140.904C174.295 140.232 172.551 139.896 170.599 139.896C166.503 139.896 163.255 141.096 160.855 143.496C158.487 145.864 157.015 149.16 156.439 153.384H183.031ZM189.943 176.184C188.887 177.464 187.623 178.584 186.151 179.544C184.679 180.472 183.095 181.24 181.399 181.848C179.735 182.456 178.007 182.904 176.215 183.192C174.423 183.512 172.647 183.672 170.887 183.672C167.527 183.672 164.423 183.112 161.575 181.992C158.759 180.84 156.311 179.176 154.231 177C152.183 174.792 150.583 172.072 149.431 168.84C148.279 165.608 147.703 161.896 147.703 157.704C147.703 154.312 148.215 151.144 149.239 148.2C150.295 145.256 151.799 142.712 153.751 140.568C155.703 138.392 158.087 136.696 160.903 135.48C163.719 134.232 166.887 133.608 170.407 133.608C173.319 133.608 176.007 134.104 178.471 135.096C180.967 136.056 183.111 137.464 184.903 139.32C186.727 141.144 188.151 143.416 189.175 146.136C190.199 148.824 190.711 151.896 190.711 155.352C190.711 156.696 190.567 157.592 190.279 158.04C189.991 158.488 189.447 158.712 188.647 158.712H156.151C156.247 161.784 156.663 164.456 157.399 166.728C158.167 169 159.223 170.904 160.567 172.44C161.911 173.944 163.511 175.08 165.367 175.848C167.223 176.584 169.303 176.952 171.607 176.952C173.751 176.952 175.591 176.712 177.127 176.232C178.695 175.72 180.039 175.176 181.159 174.6C182.279 174.024 183.207 173.496 183.943 173.016C184.711 172.504 185.367 172.248 185.911 172.248C186.615 172.248 187.159 172.52 187.543 173.064L189.943 176.184ZM237.048 144.36H240.552C241.768 144.36 242.744 144.216 243.48 143.928C244.216 143.608 244.888 143.08 245.496 142.344L268.392 116.424C269.032 115.592 269.704 115.016 270.408 114.696C271.112 114.376 271.976 114.216 273 114.216H280.872L254.664 143.832C254.024 144.6 253.4 145.24 252.792 145.752C252.216 146.232 251.592 146.632 250.92 146.952C251.784 147.24 252.568 147.672 253.272 148.248C253.976 148.792 254.664 149.512 255.336 150.408L282.696 183H274.632C274.024 183 273.496 182.968 273.048 182.904C272.632 182.808 272.264 182.68 271.944 182.52C271.624 182.328 271.336 182.12 271.08 181.896C270.856 181.64 270.632 181.352 270.408 181.032L246.696 153.72C246.056 152.92 245.368 152.36 244.632 152.04C243.896 151.688 242.776 151.512 241.272 151.512H237.048V183H227.784V114.216H237.048V144.36ZM315.401 161.112C311.465 161.24 308.105 161.56 305.321 162.072C302.569 162.552 300.313 163.192 298.553 163.992C296.825 164.792 295.561 165.736 294.761 166.824C293.993 167.912 293.609 169.128 293.609 170.472C293.609 171.752 293.817 172.856 294.233 173.784C294.649 174.712 295.209 175.48 295.913 176.088C296.649 176.664 297.497 177.096 298.457 177.384C299.449 177.64 300.505 177.768 301.625 177.768C303.129 177.768 304.505 177.624 305.753 177.336C307.001 177.016 308.169 176.568 309.257 175.992C310.377 175.416 311.433 174.728 312.425 173.928C313.449 173.128 314.441 172.216 315.401 171.192V161.112ZM287.801 141.24C290.489 138.648 293.385 136.712 296.489 135.432C299.593 134.152 303.033 133.512 306.809 133.512C309.529 133.512 311.945 133.96 314.057 134.856C316.169 135.752 317.945 137 319.385 138.6C320.825 140.2 321.913 142.136 322.649 144.408C323.385 146.68 323.753 149.176 323.753 151.896V183H319.961C319.129 183 318.489 182.872 318.041 182.616C317.593 182.328 317.241 181.784 316.985 180.984L316.025 176.376C314.745 177.56 313.497 178.616 312.281 179.544C311.065 180.44 309.785 181.208 308.441 181.848C307.097 182.456 305.657 182.92 304.121 183.24C302.617 183.592 300.937 183.768 299.081 183.768C297.193 183.768 295.417 183.512 293.753 183C292.089 182.456 290.633 181.656 289.385 180.6C288.169 179.544 287.193 178.216 286.457 176.616C285.753 174.984 285.401 173.064 285.401 170.856C285.401 168.936 285.929 167.096 286.985 165.336C288.041 163.544 289.753 161.96 292.121 160.584C294.489 159.208 297.577 158.088 301.385 157.224C305.193 156.328 309.865 155.816 315.401 155.688V151.896C315.401 148.12 314.585 145.272 312.953 143.352C311.321 141.4 308.937 140.424 305.801 140.424C303.689 140.424 301.913 140.696 300.473 141.24C299.065 141.752 297.833 142.344 296.777 143.016C295.753 143.656 294.857 144.248 294.089 144.792C293.353 145.304 292.617 145.56 291.881 145.56C291.305 145.56 290.809 145.416 290.393 145.128C289.977 144.808 289.625 144.424 289.337 143.976L287.801 141.24ZM344.832 141.432C345.888 140.248 347.008 139.176 348.192 138.216C349.376 137.256 350.624 136.44 351.936 135.768C353.28 135.064 354.688 134.536 356.16 134.184C357.664 133.8 359.28 133.608 361.008 133.608C363.664 133.608 366 134.056 368.016 134.952C370.064 135.816 371.76 137.064 373.104 138.696C374.48 140.296 375.52 142.232 376.224 144.504C376.928 146.776 377.28 149.288 377.28 152.04V183H368.688V152.04C368.688 148.36 367.84 145.512 366.144 143.496C364.48 141.448 361.936 140.424 358.512 140.424C355.984 140.424 353.616 141.032 351.408 142.248C349.232 143.464 347.216 145.112 345.36 147.192V183H336.768V134.376H341.904C343.12 134.376 343.872 134.968 344.16 136.152L344.832 141.432ZM398.891 171.288C400.459 173.4 402.171 174.888 404.027 175.752C405.915 176.616 407.979 177.048 410.219 177.048C414.795 177.048 418.299 175.432 420.731 172.2C423.163 168.968 424.379 164.152 424.379 157.752C424.379 151.8 423.291 147.432 421.115 144.648C418.971 141.832 415.899 140.424 411.899 140.424C409.115 140.424 406.683 141.064 404.603 142.344C402.555 143.624 400.651 145.432 398.891 147.768V171.288ZM398.891 141.384C400.939 139.016 403.243 137.128 405.803 135.72C408.395 134.312 411.371 133.608 414.731 133.608C417.579 133.608 420.139 134.152 422.411 135.24C424.715 136.328 426.667 137.912 428.267 139.992C429.867 142.04 431.083 144.536 431.915 147.48C432.779 150.424 433.211 153.736 433.211 157.416C433.211 161.352 432.731 164.936 431.771 168.168C430.811 171.4 429.419 174.168 427.595 176.472C425.803 178.744 423.611 180.52 421.019 181.8C418.427 183.048 415.515 183.672 412.283 183.672C409.083 183.672 406.379 183.08 404.171 181.896C401.995 180.68 400.091 178.968 398.459 176.76L398.027 181.176C397.771 182.392 397.035 183 395.819 183H390.299V112.296H398.891V141.384ZM470.37 161.112C466.434 161.24 463.074 161.56 460.29 162.072C457.538 162.552 455.282 163.192 453.522 163.992C451.794 164.792 450.53 165.736 449.73 166.824C448.962 167.912 448.578 169.128 448.578 170.472C448.578 171.752 448.786 172.856 449.202 173.784C449.618 174.712 450.178 175.48 450.882 176.088C451.618 176.664 452.466 177.096 453.426 177.384C454.418 177.64 455.474 177.768 456.594 177.768C458.098 177.768 459.474 177.624 460.722 177.336C461.97 177.016 463.138 176.568 464.226 175.992C465.346 175.416 466.402 174.728 467.394 173.928C468.418 173.128 469.41 172.216 470.37 171.192V161.112ZM442.77 141.24C445.458 138.648 448.354 136.712 451.458 135.432C454.562 134.152 458.002 133.512 461.778 133.512C464.498 133.512 466.914 133.96 469.026 134.856C471.138 135.752 472.914 137 474.354 138.6C475.794 140.2 476.882 142.136 477.618 144.408C478.354 146.68 478.722 149.176 478.722 151.896V183H474.93C474.098 183 473.458 182.872 473.01 182.616C472.562 182.328 472.21 181.784 471.954 180.984L470.994 176.376C469.714 177.56 468.466 178.616 467.25 179.544C466.034 180.44 464.754 181.208 463.41 181.848C462.066 182.456 460.626 182.92 459.09 183.24C457.586 183.592 455.906 183.768 454.05 183.768C452.162 183.768 450.386 183.512 448.722 183C447.058 182.456 445.602 181.656 444.354 180.6C443.138 179.544 442.162 178.216 441.426 176.616C440.722 174.984 440.37 173.064 440.37 170.856C440.37 168.936 440.898 167.096 441.954 165.336C443.01 163.544 444.722 161.96 447.09 160.584C449.458 159.208 452.546 158.088 456.354 157.224C460.162 156.328 464.834 155.816 470.37 155.688V151.896C470.37 148.12 469.554 145.272 467.922 143.352C466.29 141.4 463.906 140.424 460.77 140.424C458.658 140.424 456.882 140.696 455.442 141.24C454.034 141.752 452.802 142.344 451.746 143.016C450.722 143.656 449.826 144.248 449.058 144.792C448.322 145.304 447.586 145.56 446.85 145.56C446.274 145.56 445.778 145.416 445.362 145.128C444.946 144.808 444.594 144.424 444.306 143.976L442.77 141.24ZM499.801 141.432C500.857 140.248 501.977 139.176 503.161 138.216C504.345 137.256 505.593 136.44 506.905 135.768C508.249 135.064 509.657 134.536 511.129 134.184C512.633 133.8 514.249 133.608 515.977 133.608C518.633 133.608 520.969 134.056 522.985 134.952C525.033 135.816 526.729 137.064 528.073 138.696C529.449 140.296 530.489 142.232 531.193 144.504C531.897 146.776 532.249 149.288 532.249 152.04V183H523.657V152.04C523.657 148.36 522.809 145.512 521.113 143.496C519.449 141.448 516.905 140.424 513.481 140.424C510.953 140.424 508.585 141.032 506.377 142.248C504.201 143.464 502.185 145.112 500.329 147.192V183H491.737V134.376H496.873C498.089 134.376 498.841 134.968 499.129 136.152L499.801 141.432Z" fill="#111111"/>
</svg>
