<svg width="204" height="200" viewBox="0 0 204 200" fill="none" xmlns="http://www.w3.org/2000/svg">
<rect width="204" height="200" fill="white"/>
<path d="M60.4848 0V200M5.85333 0V200" stroke="black"/>
<path d="M129.75 0V200M75.1183 0V200" stroke="black"/>
<path d="M199.015 0V200M144.383 0V200" stroke="black"/>
<path d="M75.0577 94.8075H80.7882C82.7768 94.8075 84.373 94.572 85.5767 94.101C86.7803 93.5777 87.8793 92.7142 88.8737 91.5105L126.318 49.1205C127.365 47.7598 128.464 46.8178 129.615 46.2945C130.766 45.7712 132.179 45.5095 133.854 45.5095H146.728L103.867 93.944C102.82 95.2 101.8 96.2467 100.806 97.084C99.8637 97.869 98.8432 98.5232 97.7442 99.0465C99.1572 99.5175 100.439 100.224 101.591 101.166C102.742 102.056 103.867 103.233 104.966 104.698L149.711 158H136.523C135.529 158 134.665 157.948 133.933 157.843C133.252 157.686 132.65 157.477 132.127 157.215C131.604 156.901 131.133 156.561 130.714 156.194C130.348 155.776 129.981 155.305 129.615 154.781L90.8362 110.115C89.7895 108.807 88.6643 107.891 87.4607 107.367C86.257 106.792 84.4253 106.504 81.9657 106.504H75.0577V158H59.9072V45.5095H75.0577V94.8075Z" fill="#111111"/>
</svg>
